<svg xmlns="http://www.w3.org/2000/svg" width="64" height="64" fill="none"><path fill="url(#a)" d="M4 8a4 4 0 0 1 4-4h20a4 4 0 0 1 4 4v20a4 4 0 0 1-4 4H8a4 4 0 0 1-4-4V8Z"/><path fill="url(#b)" d="M8 16a3 3 0 0 1 3-3h10a3 3 0 0 1 3 3v2a3 3 0 0 1-3 3H11a3 3 0 0 1-3-3v-2Z"/><path fill="url(#c)" d="M8 16a3 3 0 0 1 3-3h10a3 3 0 0 1 3 3v2a3 3 0 0 1-3 3H11a3 3 0 0 1-3-3v-2Z"/><path fill="url(#d)" d="M8 16a3 3 0 0 1 3-3h10a3 3 0 0 1 3 3v2a3 3 0 0 1-3 3H11a3 3 0 0 1-3-3v-2Z"/><path fill="url(#e)" d="M8 24a3 3 0 0 1 3-3h10a3 3 0 0 1 3 3v2a3 3 0 0 1-3 3H11a3 3 0 0 1-3-3v-2Z"/><path fill="url(#f)" d="M8 24a3 3 0 0 1 3-3h10a3 3 0 0 1 3 3v2a3 3 0 0 1-3 3H11a3 3 0 0 1-3-3v-2Z"/><path fill="url(#g)" d="M8 24a3 3 0 0 1 3-3h10a3 3 0 0 1 3 3v2a3 3 0 0 1-3 3H11a3 3 0 0 1-3-3v-2Z"/><rect width="14" height="7" x="11" y="18" fill="url(#h)" rx="1.072"/><path fill="url(#i)" d="M11 12.258c0-.695.563-1.258 1.258-1.258h11.484c.695 0 1.258.563 1.258 1.258v4.484c0 .695-.563 1.258-1.258 1.258H12.258A1.258 1.258 0 0 1 11 16.742v-4.484Z"/><rect width="13.5" height="6.5" x="11.25" y="11.25" stroke="url(#j)" stroke-width=".5" rx=".822"/><path fill="url(#k)" fill-rule="evenodd" d="M23.742 18.587H12.258a.67.67 0 0 0-.671.67v4.485c0 .37.3.671.67.671h11.485c.37 0 .671-.3.671-.67v-4.485a.67.67 0 0 0-.67-.671ZM12.258 18c-.695 0-1.258.563-1.258 1.258v4.484c0 .695.563 1.258 1.258 1.258h11.484c.695 0 1.258-.563 1.258-1.258v-4.484c0-.695-.563-1.258-1.258-1.258H12.258Z" clip-rule="evenodd"/><path fill="#FF6F32" d="M55.219 13.239c1.124-1.125.859-3.21-.266-4.334-1.124-1.125-3.06-1.243-4.185-.118l-4.305 4.306a.622.622 0 0 1-.88 0L41.32 8.829c-1.124-1.125-3.04-1.039-4.164.086l-.097.116c-1.125 1.125-1.314 3.125-.19 4.25l4.263 4.264a.622.622 0 0 1 0 .88l-4.344 4.345c-1.124 1.124-1.01 3.084.115 4.208l.117.107c1.124 1.125 3.095 1.261 4.22.136l4.343-4.345a.622.622 0 0 1 .88 0l4.304 4.306c1.125 1.125 3.057 1.023 4.181-.102l.141-.145c1.125-1.125 1.254-3.08.13-4.205l-4.305-4.306a.622.622 0 0 1 0-.88l4.305-4.305Z"/><path fill="url(#l)" d="M55.219 13.239c1.124-1.125.859-3.21-.266-4.334-1.124-1.125-3.06-1.243-4.185-.118l-4.305 4.306a.622.622 0 0 1-.88 0L41.32 8.829c-1.124-1.125-3.04-1.039-4.164.086l-.097.116c-1.125 1.125-1.314 3.125-.19 4.25l4.263 4.264a.622.622 0 0 1 0 .88l-4.344 4.345c-1.124 1.124-1.01 3.084.115 4.208l.117.107c1.124 1.125 3.095 1.261 4.22.136l4.343-4.345a.622.622 0 0 1 .88 0l4.304 4.306c1.125 1.125 3.057 1.023 4.181-.102l.141-.145c1.125-1.125 1.254-3.08.13-4.205l-4.305-4.306a.622.622 0 0 1 0-.88l4.305-4.305Z"/><path fill="url(#m)" d="M55.219 13.239c1.124-1.125.859-3.21-.266-4.334-1.124-1.125-3.06-1.243-4.185-.118l-4.305 4.306a.622.622 0 0 1-.88 0L41.32 8.829c-1.124-1.125-3.04-1.039-4.164.086l-.097.116c-1.125 1.125-1.314 3.125-.19 4.25l4.263 4.264a.622.622 0 0 1 0 .88l-4.344 4.345c-1.124 1.124-1.01 3.084.115 4.208l.117.107c1.124 1.125 3.095 1.261 4.22.136l4.343-4.345a.622.622 0 0 1 .88 0l4.304 4.306c1.125 1.125 3.057 1.023 4.181-.102l.141-.145c1.125-1.125 1.254-3.08.13-4.205l-4.305-4.306a.622.622 0 0 1 0-.88l4.305-4.305Z"/><path fill="url(#n)" d="M55.219 13.239c1.124-1.125.859-3.21-.266-4.334-1.124-1.125-3.06-1.243-4.185-.118l-4.305 4.306a.622.622 0 0 1-.88 0L41.32 8.829c-1.124-1.125-3.04-1.039-4.164.086l-.097.116c-1.125 1.125-1.314 3.125-.19 4.25l4.263 4.264a.622.622 0 0 1 0 .88l-4.344 4.345c-1.124 1.124-1.01 3.084.115 4.208l.117.107c1.124 1.125 3.095 1.261 4.22.136l4.343-4.345a.622.622 0 0 1 .88 0l4.304 4.306c1.125 1.125 3.057 1.023 4.181-.102l.141-.145c1.125-1.125 1.254-3.08.13-4.205l-4.305-4.306a.622.622 0 0 1 0-.88l4.305-4.305Z"/><path fill="url(#o)" d="M55.219 13.239c1.124-1.125.859-3.21-.266-4.334-1.124-1.125-3.06-1.243-4.185-.118l-4.305 4.306a.622.622 0 0 1-.88 0L41.32 8.829c-1.124-1.125-3.04-1.039-4.164.086l-.097.116c-1.125 1.125-1.314 3.125-.19 4.25l4.263 4.264a.622.622 0 0 1 0 .88l-4.344 4.345c-1.124 1.124-1.01 3.084.115 4.208l.117.107c1.124 1.125 3.095 1.261 4.22.136l4.343-4.345a.622.622 0 0 1 .88 0l4.304 4.306c1.125 1.125 3.057 1.023 4.181-.102l.141-.145c1.125-1.125 1.254-3.08.13-4.205l-4.305-4.306a.622.622 0 0 1 0-.88l4.305-4.305Z"/><path fill="url(#p)" d="M55.219 13.239c1.124-1.125.859-3.21-.266-4.334-1.124-1.125-3.06-1.243-4.185-.118l-4.305 4.306a.622.622 0 0 1-.88 0L41.32 8.829c-1.124-1.125-3.04-1.039-4.164.086l-.097.116c-1.125 1.125-1.314 3.125-.19 4.25l4.263 4.264a.622.622 0 0 1 0 .88l-4.344 4.345c-1.124 1.124-1.01 3.084.115 4.208l.117.107c1.124 1.125 3.095 1.261 4.22.136l4.343-4.345a.622.622 0 0 1 .88 0l4.304 4.306c1.125 1.125 3.057 1.023 4.181-.102l.141-.145c1.125-1.125 1.254-3.08.13-4.205l-4.305-4.306a.622.622 0 0 1 0-.88l4.305-4.305Z"/><path fill="url(#q)" d="M55.219 13.239c1.124-1.125.859-3.21-.266-4.334-1.124-1.125-3.06-1.243-4.185-.118l-4.305 4.306a.622.622 0 0 1-.88 0L41.32 8.829c-1.124-1.125-3.04-1.039-4.164.086l-.097.116c-1.125 1.125-1.314 3.125-.19 4.25l4.263 4.264a.622.622 0 0 1 0 .88l-4.344 4.345c-1.124 1.124-1.01 3.084.115 4.208l.117.107c1.124 1.125 3.095 1.261 4.22.136l4.343-4.345a.622.622 0 0 1 .88 0l4.304 4.306c1.125 1.125 3.057 1.023 4.181-.102l.141-.145c1.125-1.125 1.254-3.08.13-4.205l-4.305-4.306a.622.622 0 0 1 0-.88l4.305-4.305Z"/><path fill="url(#r)" d="M55.219 13.239c1.124-1.125.859-3.21-.266-4.334-1.124-1.125-3.06-1.243-4.185-.118l-4.305 4.306a.622.622 0 0 1-.88 0L41.32 8.829c-1.124-1.125-3.04-1.039-4.164.086l-.097.116c-1.125 1.125-1.314 3.125-.19 4.25l4.263 4.264a.622.622 0 0 1 0 .88l-4.344 4.345c-1.124 1.124-1.01 3.084.115 4.208l.117.107c1.124 1.125 3.095 1.261 4.22.136l4.343-4.345a.622.622 0 0 1 .88 0l4.304 4.306c1.125 1.125 3.057 1.023 4.181-.102l.141-.145c1.125-1.125 1.254-3.08.13-4.205l-4.305-4.306a.622.622 0 0 1 0-.88l4.305-4.305Z"/><path fill="url(#s)" fill-opacity=".62" d="M55.219 13.239c1.124-1.125.859-3.21-.266-4.334-1.124-1.125-3.06-1.243-4.185-.118l-4.305 4.306a.622.622 0 0 1-.88 0L41.32 8.829c-1.124-1.125-3.04-1.039-4.164.086l-.097.116c-1.125 1.125-1.314 3.125-.19 4.25l4.263 4.264a.622.622 0 0 1 0 .88l-4.344 4.345c-1.124 1.124-1.01 3.084.115 4.208l.117.107c1.124 1.125 3.095 1.261 4.22.136l4.343-4.345a.622.622 0 0 1 .88 0l4.304 4.306c1.125 1.125 3.057 1.023 4.181-.102l.141-.145c1.125-1.125 1.254-3.08.13-4.205l-4.305-4.306a.622.622 0 0 1 0-.88l4.305-4.305Z"/><path fill="url(#t)" fill-opacity=".6" d="M55.219 13.239c1.124-1.125.859-3.21-.266-4.334-1.124-1.125-3.06-1.243-4.185-.118l-4.305 4.306a.622.622 0 0 1-.88 0L41.32 8.829c-1.124-1.125-3.04-1.039-4.164.086l-.097.116c-1.125 1.125-1.314 3.125-.19 4.25l4.263 4.264a.622.622 0 0 1 0 .88l-4.344 4.345c-1.124 1.124-1.01 3.084.115 4.208l.117.107c1.124 1.125 3.095 1.261 4.22.136l4.343-4.345a.622.622 0 0 1 .88 0l4.304 4.306c1.125 1.125 3.057 1.023 4.181-.102l.141-.145c1.125-1.125 1.254-3.08.13-4.205l-4.305-4.306a.622.622 0 0 1 0-.88l4.305-4.305Z"/><path fill="url(#u)" fill-opacity=".7" d="M55.219 13.239c1.124-1.125.859-3.21-.266-4.334-1.124-1.125-3.06-1.243-4.185-.118l-4.305 4.306a.622.622 0 0 1-.88 0L41.32 8.829c-1.124-1.125-3.04-1.039-4.164.086l-.097.116c-1.125 1.125-1.314 3.125-.19 4.25l4.263 4.264a.622.622 0 0 1 0 .88l-4.344 4.345c-1.124 1.124-1.01 3.084.115 4.208l.117.107c1.124 1.125 3.095 1.261 4.22.136l4.343-4.345a.622.622 0 0 1 .88 0l4.304 4.306c1.125 1.125 3.057 1.023 4.181-.102l.141-.145c1.125-1.125 1.254-3.08.13-4.205l-4.305-4.306a.622.622 0 0 1 0-.88l4.305-4.305Z"/><rect width="28" height="28" x="4" y="32" fill="url(#v)" rx="4"/><rect width="28" height="28" x="4" y="32" fill="url(#w)" fill-opacity=".4" rx="4"/><rect width="28" height="28" x="4" y="32" fill="url(#x)" fill-opacity=".55" rx="4"/><rect width="28" height="28" x="4" y="32" fill="url(#y)" fill-opacity=".3" rx="4"/><rect width="28" height="28" x="32" y="32" fill="url(#z)" rx="4"/><rect width="13" height="12" x="37" y="43" fill="url(#A)" rx=".779"/><rect width="13" height="12" x="37" y="43" fill="url(#B)" rx=".779"/><rect width="13" height="12" x="37" y="43" fill="url(#C)" rx=".779"/><path fill="url(#D)" d="M39 41.154c0-1.19.964-2.154 2.154-2.154h9.692c1.19 0 2.154.964 2.154 2.154v9.692c0 1.19-.964 2.154-2.154 2.154h-9.692A2.154 2.154 0 0 1 39 50.846v-9.692Z"/><path fill="url(#E)" fill-rule="evenodd" d="M50.846 40h-9.692c-.637 0-1.154.517-1.154 1.154v9.692c0 .637.517 1.154 1.154 1.154h9.692c.637 0 1.154-.517 1.154-1.154v-9.692c0-.637-.517-1.154-1.154-1.154Zm-9.692-1c-1.19 0-2.154.964-2.154 2.154v9.692c0 1.19.964 2.154 2.154 2.154h9.692c1.19 0 2.154-.964 2.154-2.154v-9.692c0-1.19-.964-2.154-2.154-2.154h-9.692Z" clip-rule="evenodd"/><path fill="url(#F)" d="M16.049 53.019a7.297 7.297 0 1 0 3.922-14.058 7.297 7.297 0 0 0-3.922 14.058Z"/><path fill="url(#G)" fill-rule="evenodd" d="M16.318 52.056a6.297 6.297 0 1 0 3.384-12.132 6.297 6.297 0 0 0-3.384 12.132Zm8.72-4.105a7.297 7.297 0 1 1-14.057-3.922 7.297 7.297 0 0 1 14.058 3.922Z" clip-rule="evenodd"/><path fill="#D6A5FF" d="M27 37.5a.5.5 0 1 1-1 0 .5.5 0 0 1 1 0Z"/><path fill="#C6DDE6" d="M16 42.5a.5.5 0 1 1-1 0 .5.5 0 0 1 1 0Zm2 1a.5.5 0 1 1-1 0 .5.5 0 0 1 1 0Zm-4 2a.5.5 0 1 1-1 0 .5.5 0 0 1 1 0Z"/><path fill="#D6A5FF" d="M8 37.5a.5.5 0 1 1-1 0 .5.5 0 0 1 1 0Zm3 20a.5.5 0 1 1-1 0 .5.5 0 0 1 1 0Z"/><path fill="#A682E0" d="M16 54.5a.5.5 0 1 1-1 0 .5.5 0 0 1 1 0Z"/><path fill="#D6A5FF" d="M25.5 39.25a.25.25 0 1 1-.5 0 .25.25 0 0 1 .5 0ZM8.75 54.375a.375.375 0 1 1-.75 0 .375.375 0 0 1 .75 0Zm20-13a.375.375 0 1 1-.75 0 .375.375 0 0 1 .75 0Z"/><path fill="#A682E0" d="M17.75 34.375a.375.375 0 1 1-.75 0 .375.375 0 0 1 .75 0Z"/><path fill="#D6A5FF" d="M5.75 46.375a.375.375 0 1 1-.75 0 .375.375 0 0 1 .75 0ZM26.5 55.25a.25.25 0 1 1-.5 0 .25.25 0 0 1 .5 0Zm2-3a.25.25 0 1 1-.5 0 .25.25 0 0 1 .5 0Z"/><path fill="#D4EB94" d="M48 47.5a.5.5 0 1 1-1 0 .5.5 0 0 1 1 0Zm2.5 2.75a.25.25 0 1 1-.5 0 .25.25 0 0 1 .5 0Zm0-3a.25.25 0 1 1-.5 0 .25.25 0 0 1 .5 0Zm-6 4a.25.25 0 1 1-.5 0 .25.25 0 0 1 .5 0Z"/><path fill="#EBD052" d="M48.75 15.375a.375.375 0 1 1-.75 0 .375.375 0 0 1 .75 0Z"/><path fill="#F4DF72" d="M46.75 16.375a.375.375 0 1 1-.75 0 .375.375 0 0 1 .75 0Zm-.25 1.875a.25.25 0 1 1-.5 0 .25.25 0 0 1 .5 0Zm-5-5a.25.25 0 1 1-.5 0 .25.25 0 0 1 .5 0Zm9.25 10.125a.375.375 0 1 1-.75 0 .375.375 0 0 1 .75 0Zm.75-2.125a.25.25 0 1 1-.5 0 .25.25 0 0 1 .5 0Zm-2-7a.25.25 0 1 1-.5 0 .25.25 0 0 1 .5 0Z"/><path fill="#FEE39E" d="M21 12.5a.5.5 0 1 1-1 0 .5.5 0 0 1 1 0Zm-7 8a.5.5 0 1 1-1 0 .5.5 0 0 1 1 0Zm8.5-6.25a.25.25 0 1 1-.5 0 .25.25 0 0 1 .5 0Zm-4 2a.25.25 0 1 1-.5 0 .25.25 0 0 1 .5 0Zm-2 7a.25.25 0 1 1-.5 0 .25.25 0 0 1 .5 0Zm7-1a.25.25 0 1 1-.5 0 .25.25 0 0 1 .5 0Zm0-10a.25.25 0 1 1-.5 0 .25.25 0 0 1 .5 0Z"/><defs><linearGradient id="a" x1="29" x2="2" y1="4" y2="35.5" gradientUnits="userSpaceOnUse"><stop offset=".396" stop-color="#E7E7E7"/><stop offset="1" stop-color="#C9F5FF"/></linearGradient><linearGradient id="b" x1="8" x2="23.995" y1="16.612" y2="16.945" gradientUnits="userSpaceOnUse"><stop offset=".029" stop-color="#DFE9EB" stop-opacity="0"/><stop offset=".152" stop-color="#A8B6BB"/><stop offset=".893" stop-color="#A8B6BB"/><stop offset="1" stop-color="#D9D9D9" stop-opacity="0"/></linearGradient><linearGradient id="c" x1="16" x2="16" y1="13" y2="14.875" gradientUnits="userSpaceOnUse"><stop offset=".217" stop-color="#E4E9EA"/><stop offset="1" stop-color="#E7E7E7" stop-opacity="0"/></linearGradient><linearGradient id="d" x1="16" x2="16" y1="21" y2="14.029" gradientUnits="userSpaceOnUse"><stop offset=".035" stop-color="#DBEDF1"/><stop offset=".237" stop-color="#DBEDF1" stop-opacity="0"/></linearGradient><linearGradient id="e" x1="8" x2="23.995" y1="24.612" y2="24.945" gradientUnits="userSpaceOnUse"><stop offset=".037" stop-color="#D7EFF4" stop-opacity="0"/><stop offset=".156" stop-color="#A8B6BB"/><stop offset=".84" stop-color="#A8B6BB"/><stop offset=".939" stop-color="#E1EAEC" stop-opacity="0"/></linearGradient><linearGradient id="f" x1="16" x2="16" y1="21" y2="22.468" gradientUnits="userSpaceOnUse"><stop offset=".17" stop-color="#DBEDF1"/><stop offset="1" stop-color="#DBEDF1" stop-opacity="0"/></linearGradient><linearGradient id="g" x1="16" x2="16" y1="29" y2="22.029" gradientUnits="userSpaceOnUse"><stop offset=".035" stop-color="#DBEDF1"/><stop offset=".237" stop-color="#DBEDF1" stop-opacity="0"/></linearGradient><linearGradient id="j" x1="12.12" x2="16.331" y1="18" y2="7.893" gradientUnits="userSpaceOnUse"><stop offset=".075" stop-color="#0047B3"/><stop offset=".553" stop-color="#1091F9"/><stop offset=".627" stop-color="#159DFF"/><stop offset=".76" stop-color="#48B2FF"/><stop offset="1" stop-color="#5DBBFF"/></linearGradient><linearGradient id="k" x1="12.12" x2="16.331" y1="25" y2="14.893" gradientUnits="userSpaceOnUse"><stop offset=".075" stop-color="#0047B3"/><stop offset=".553" stop-color="#1091F9"/><stop offset=".627" stop-color="#159DFF"/><stop offset=".76" stop-color="#48B2FF"/><stop offset="1" stop-color="#5DBBFF"/></linearGradient><linearGradient id="l" x1="47.105" x2="42.022" y1="23.774" y2="18.539" gradientUnits="userSpaceOnUse"><stop offset=".154" stop-color="#FF6F32"/><stop offset=".321" stop-color="#B82800"/><stop offset=".417" stop-color="#EB4618"/><stop offset=".675" stop-color="#FF5E31" stop-opacity="0"/></linearGradient><linearGradient id="m" x1="45.664" x2="52.356" y1="25.421" y2="18.499" gradientUnits="userSpaceOnUse"><stop offset=".154" stop-color="#FF5E31" stop-opacity="0"/><stop offset=".24" stop-color="#FF6F32"/><stop offset=".322" stop-color="#A91408"/><stop offset=".553" stop-color="#CA2B09" stop-opacity=".315"/><stop offset=".773" stop-color="#FF5E31" stop-opacity="0"/></linearGradient><linearGradient id="n" x1="41.992" x2="42.006" y1="7.928" y2="14.082" gradientUnits="userSpaceOnUse"><stop stop-color="#FFBA94"/><stop offset="1" stop-color="#FF7032" stop-opacity="0"/></linearGradient><linearGradient id="o" x1="40.11" x2="40.432" y1="28.926" y2="19.876" gradientUnits="userSpaceOnUse"><stop stop-color="#DC2F21"/><stop offset=".375" stop-color="#DC2F21" stop-opacity=".3"/><stop offset=".821" stop-color="#CA2B09" stop-opacity="0"/></linearGradient><linearGradient id="z" x1="57" x2="34.5" y1="32" y2="63" gradientUnits="userSpaceOnUse"><stop offset=".423" stop-color="#E7E7E7"/><stop offset="1" stop-color="#C9F5FF"/></linearGradient><linearGradient id="A" x1="37" x2="50" y1="48.418" y2="48.565" gradientUnits="userSpaceOnUse"><stop stop-color="#D5F0F6" stop-opacity="0"/><stop offset=".114" stop-color="#A8B6BB"/><stop offset=".893" stop-color="#A8B6BB"/><stop offset="1" stop-color="#E3E9EA" stop-opacity="0"/></linearGradient><linearGradient id="B" x1="43.5" x2="43.5" y1="43" y2="44.543" gradientUnits="userSpaceOnUse"><stop offset=".23" stop-color="#DEEBEF"/><stop offset="1" stop-color="#E5E8E9" stop-opacity="0"/></linearGradient><linearGradient id="C" x1="43.5" x2="43.5" y1="55" y2="44.543" gradientUnits="userSpaceOnUse"><stop offset=".035" stop-color="#D8EEF3"/><stop offset=".133" stop-color="#D8EEF3" stop-opacity="0"/></linearGradient><linearGradient id="E" x1="43.5" x2="49.5" y1="53" y2="40.5" gradientUnits="userSpaceOnUse"><stop offset=".326" stop-color="#009E65"/><stop offset=".767" stop-color="#45DA94"/><stop offset="1" stop-color="#3ED692"/></linearGradient><linearGradient id="G" x1="19.971" x2="16.049" y1="38.961" y2="53.019" gradientUnits="userSpaceOnUse"><stop stop-color="#E4C2FF"/><stop offset="1" stop-color="#8026CB"/></linearGradient><radialGradient id="h" cx="0" cy="0" r="1" gradientTransform="matrix(-12.17705 8.89595 -9.85513 -13.49 24.297 16.688)" gradientUnits="userSpaceOnUse"><stop offset=".324" stop-color="#3FAEFF"/><stop offset=".891" stop-color="#0069E3"/></radialGradient><radialGradient id="i" cx="0" cy="0" r="1" gradientTransform="matrix(-12.17705 8.89595 -9.85513 -13.49 24.297 9.688)" gradientUnits="userSpaceOnUse"><stop offset=".324" stop-color="#3FAEFF"/><stop offset=".891" stop-color="#0069E3"/></radialGradient><radialGradient id="p" cx="0" cy="0" r="1" gradientTransform="rotate(146.843 20.33 15.863) scale(7.53927 8.48218)" gradientUnits="userSpaceOnUse"><stop offset=".497" stop-color="#FF7032"/><stop offset=".777" stop-color="#FF6F32" stop-opacity="0"/></radialGradient><radialGradient id="q" cx="0" cy="0" r="1" gradientTransform="matrix(-3.49535 1.4461 -1.44173 -3.48477 46.284 23.57)" gradientUnits="userSpaceOnUse"><stop offset=".164" stop-color="#DC2F21"/><stop offset="1" stop-color="#DC2F21" stop-opacity="0"/></radialGradient><radialGradient id="r" cx="0" cy="0" r="1" gradientTransform="rotate(-136.179 23.489 .433) scale(3.89508 3.89016)" gradientUnits="userSpaceOnUse"><stop offset=".164" stop-color="#DC2F21"/><stop offset="1" stop-color="#DC2F21" stop-opacity="0"/></radialGradient><radialGradient id="s" cx="0" cy="0" r="1" gradientTransform="matrix(-3.10874 3.10939 -2.89938 -2.89878 52.87 9.338)" gradientUnits="userSpaceOnUse"><stop stop-color="#FCE7FF"/><stop offset=".615" stop-color="#FF5E31" stop-opacity="0"/></radialGradient><radialGradient id="t" cx="0" cy="0" r="1" gradientTransform="rotate(-134.994 21.97 -3.267) scale(2.63813 2.21173)" gradientUnits="userSpaceOnUse"><stop offset=".105" stop-color="#FDDAFF"/><stop offset=".448" stop-color="#FADAFF" stop-opacity=".443"/><stop offset="1" stop-color="#FF5E31" stop-opacity="0"/></radialGradient><radialGradient id="u" cx="0" cy="0" r="1" gradientTransform="matrix(-1.86524 -1.86563 1.88727 -1.88688 45.409 14.935)" gradientUnits="userSpaceOnUse"><stop offset=".108" stop-color="#FADAFF"/><stop offset="1" stop-color="#FF5E31" stop-opacity="0"/></radialGradient><radialGradient id="v" cx="0" cy="0" r="1" gradientTransform="matrix(-38.5388 0 0 -51.3431 24.073 46)" gradientUnits="userSpaceOnUse"><stop offset=".436" stop-color="#FFF4EB"/><stop offset="1" stop-color="#F4EEEC"/></radialGradient><radialGradient id="w" cx="0" cy="0" r="1" gradientTransform="matrix(9.56173 4.529 -4.97342 10.5 17 49.5)" gradientUnits="userSpaceOnUse"><stop offset=".657" stop-color="#B59174"/><stop offset=".797" stop-color="#B59174" stop-opacity="0"/></radialGradient><radialGradient id="x" cx="0" cy="0" r="1" gradientTransform="matrix(30 0 0 8.375 18 32)" gradientUnits="userSpaceOnUse"><stop offset=".347" stop-color="#B59174"/><stop offset=".769" stop-color="#E7C0A8" stop-opacity="0"/></radialGradient><radialGradient id="y" cx="0" cy="0" r="1" gradientTransform="matrix(0 -21.875 6.75117 0 32 46)" gradientUnits="userSpaceOnUse"><stop offset=".272" stop-color="#B59174"/><stop offset=".806" stop-color="#E7C0A8" stop-opacity="0"/></radialGradient><radialGradient id="D" cx="0" cy="0" r="1" gradientTransform="rotate(-110.726 41.997 11.611) scale(19.78 29.128)" gradientUnits="userSpaceOnUse"><stop offset=".243" stop-color="#90D933"/><stop offset=".39" stop-color="#2BBE7C"/></radialGradient><radialGradient id="F" cx="0" cy="0" r="1" gradientTransform="rotate(105.51 -5.944 27.907) scale(12.3735)" gradientUnits="userSpaceOnUse"><stop stop-color="#E1A3FE"/><stop offset=".526" stop-color="#C380FD"/><stop offset="1" stop-color="#B763FC"/></radialGradient></defs></svg>